<svg width="116" height="52" viewBox="0 0 116 52" fill="none" xmlns="http://www.w3.org/2000/svg">
<mask id="path-1-outside-1_1_17" maskUnits="userSpaceOnUse" x="33" y="22.4" width="49" height="10" fill="black">
<rect fill="white" x="33" y="22.4" width="49" height="10"/>
<path d="M37.02 31.4V25.76H34.2V24.2H41.4V25.76H38.58V31.4H37.02ZM42.1679 31.4V24.2H48.8179V25.76H43.7379V27.02H47.8279V28.58H43.7379V29.84H48.8179V31.4H42.1679ZM49.8141 31.4V24.19H51.3641V29.84H57.0141V31.4H49.8141ZM57.6071 31.4V24.19H59.1571V29.84H64.8071V31.4H57.6071ZM65.4101 31.4V25.68C65.4101 25.4067 65.4767 25.16 65.6101 24.94C65.7434 24.7133 65.9234 24.5333 66.1501 24.4C66.3767 24.2667 66.6234 24.2 66.8901 24.2H71.1201C71.3934 24.2 71.6401 24.2667 71.8601 24.4C72.0867 24.5333 72.2667 24.7133 72.4001 24.94C72.5401 25.16 72.6101 25.4067 72.6101 25.68V31.4H71.0401V29.08H66.9601V31.4H65.4101ZM66.9601 27.52H71.0401V25.76H66.9601V27.52ZM79.3395 31.4L77.2495 28.91H79.2795L80.9395 30.87V31.4H79.3395ZM73.7495 31.4V24.21H79.4595C79.7328 24.21 79.9795 24.2767 80.1995 24.41C80.4261 24.5433 80.6061 24.7233 80.7395 24.95C80.8795 25.1767 80.9495 25.4233 80.9495 25.69V27.55C80.9495 27.8167 80.8795 28.0633 80.7395 28.29C80.6061 28.5167 80.4261 28.6967 80.1995 28.83C79.9795 28.9633 79.7328 29.03 79.4595 29.03L75.2995 29.04V31.4H73.7495ZM75.2995 27.47L79.3795 27.47V25.76L75.2995 25.76V27.47Z"/>
</mask>
<path d="M37.02 31.4V25.76H34.2V24.2H41.4V25.76H38.58V31.4H37.02ZM42.1679 31.4V24.2H48.8179V25.76H43.7379V27.02H47.8279V28.58H43.7379V29.84H48.8179V31.4H42.1679ZM49.8141 31.4V24.19H51.3641V29.84H57.0141V31.4H49.8141ZM57.6071 31.4V24.19H59.1571V29.84H64.8071V31.4H57.6071ZM65.4101 31.4V25.68C65.4101 25.4067 65.4767 25.16 65.6101 24.94C65.7434 24.7133 65.9234 24.5333 66.1501 24.4C66.3767 24.2667 66.6234 24.2 66.8901 24.2H71.1201C71.3934 24.2 71.6401 24.2667 71.8601 24.4C72.0867 24.5333 72.2667 24.7133 72.4001 24.94C72.5401 25.16 72.6101 25.4067 72.6101 25.68V31.4H71.0401V29.08H66.9601V31.4H65.4101ZM66.9601 27.52H71.0401V25.76H66.9601V27.52ZM79.3395 31.4L77.2495 28.91H79.2795L80.9395 30.87V31.4H79.3395ZM73.7495 31.4V24.21H79.4595C79.7328 24.21 79.9795 24.2767 80.1995 24.41C80.4261 24.5433 80.6061 24.7233 80.7395 24.95C80.8795 25.1767 80.9495 25.4233 80.9495 25.69V27.55C80.9495 27.8167 80.8795 28.0633 80.7395 28.29C80.6061 28.5167 80.4261 28.6967 80.1995 28.83C79.9795 28.9633 79.7328 29.03 79.4595 29.03L75.2995 29.04V31.4H73.7495ZM75.2995 27.47L79.3795 27.47V25.76L75.2995 25.76V27.47Z" fill="white"/>
<path d="M37.02 31.4H36.02V32.4H37.02V31.4ZM37.02 25.76H38.02V24.76H37.02V25.76ZM34.2 25.76H33.2V26.76H34.2V25.76ZM34.2 24.2V23.2H33.2V24.2H34.2ZM41.4 24.2H42.4V23.2H41.4V24.2ZM41.4 25.76V26.76H42.4V25.76H41.4ZM38.58 25.76V24.76H37.58V25.76H38.58ZM38.58 31.4V32.4H39.58V31.4H38.58ZM38.02 31.4V25.76H36.02V31.4H38.02ZM37.02 24.76H34.2V26.76H37.02V24.76ZM35.2 25.76V24.2H33.2V25.76H35.2ZM34.2 25.2H41.4V23.2H34.2V25.2ZM40.4 24.2V25.76H42.4V24.2H40.4ZM41.4 24.76H38.58V26.76H41.4V24.76ZM37.58 25.76V31.4H39.58V25.76H37.58ZM38.58 30.4H37.02V32.4H38.58V30.4ZM42.1679 31.4H41.1679V32.4H42.1679V31.4ZM42.1679 24.2V23.2H41.1679V24.2H42.1679ZM48.8179 24.2H49.8179V23.2H48.8179V24.2ZM48.8179 25.76V26.76H49.8179V25.76H48.8179ZM43.7379 25.76V24.76H42.7379V25.76H43.7379ZM43.7379 27.02H42.7379V28.02H43.7379V27.02ZM47.8279 27.02H48.8279V26.02H47.8279V27.02ZM47.8279 28.58V29.58H48.8279V28.58H47.8279ZM43.7379 28.58V27.58H42.7379V28.58H43.7379ZM43.7379 29.84H42.7379V30.84H43.7379V29.84ZM48.8179 29.84H49.8179V28.84H48.8179V29.84ZM48.8179 31.4V32.4H49.8179V31.4H48.8179ZM43.1679 31.4V24.2H41.1679V31.4H43.1679ZM42.1679 25.2H48.8179V23.2H42.1679V25.2ZM47.8179 24.2V25.76H49.8179V24.2H47.8179ZM48.8179 24.76H43.7379V26.76H48.8179V24.76ZM42.7379 25.76V27.02H44.7379V25.76H42.7379ZM43.7379 28.02H47.8279V26.02H43.7379V28.02ZM46.8279 27.02V28.58H48.8279V27.02H46.8279ZM47.8279 27.58H43.7379V29.58H47.8279V27.58ZM42.7379 28.58V29.84H44.7379V28.58H42.7379ZM43.7379 30.84H48.8179V28.84H43.7379V30.84ZM47.8179 29.84V31.4H49.8179V29.84H47.8179ZM48.8179 30.4H42.1679V32.4H48.8179V30.4ZM49.8141 31.4H48.8141V32.4H49.8141V31.4ZM49.8141 24.19V23.19H48.8141V24.19H49.8141ZM51.3641 24.19H52.3641V23.19H51.3641V24.19ZM51.3641 29.84H50.3641V30.84H51.3641V29.84ZM57.0141 29.84H58.0141V28.84H57.0141V29.84ZM57.0141 31.4V32.4H58.0141V31.4H57.0141ZM50.8141 31.4V24.19H48.8141V31.4H50.8141ZM49.8141 25.19H51.3641V23.19H49.8141V25.19ZM50.3641 24.19V29.84H52.3641V24.19H50.3641ZM51.3641 30.84H57.0141V28.84H51.3641V30.84ZM56.0141 29.84V31.4H58.0141V29.84H56.0141ZM57.0141 30.4H49.8141V32.4H57.0141V30.4ZM57.6071 31.4H56.6071V32.4H57.6071V31.4ZM57.6071 24.19V23.19H56.6071V24.19H57.6071ZM59.1571 24.19H60.1571V23.19H59.1571V24.19ZM59.1571 29.84H58.1571V30.84H59.1571V29.84ZM64.8071 29.84H65.8071V28.84H64.8071V29.84ZM64.8071 31.4V32.4H65.8071V31.4H64.8071ZM58.6071 31.4V24.19H56.6071V31.4H58.6071ZM57.6071 25.19H59.1571V23.19H57.6071V25.19ZM58.1571 24.19V29.84H60.1571V24.19H58.1571ZM59.1571 30.84H64.8071V28.84H59.1571V30.84ZM63.8071 29.84V31.4H65.8071V29.84H63.8071ZM64.8071 30.4H57.6071V32.4H64.8071V30.4ZM65.4101 31.4H64.4101V32.4H65.4101V31.4ZM65.6101 24.94L66.4653 25.4583L66.472 25.447L65.6101 24.94ZM66.1501 24.4L65.6431 23.5381L65.6431 23.5381L66.1501 24.4ZM71.8601 24.4L71.3417 25.2553L71.3531 25.2619L71.8601 24.4ZM72.4001 24.94L71.5381 25.447L71.547 25.4621L71.5564 25.4769L72.4001 24.94ZM72.6101 31.4V32.4H73.6101V31.4H72.6101ZM71.0401 31.4H70.0401V32.4H71.0401V31.4ZM71.0401 29.08H72.0401V28.08H71.0401V29.08ZM66.9601 29.08V28.08H65.9601V29.08H66.9601ZM66.9601 31.4V32.4H67.9601V31.4H66.9601ZM66.9601 27.52H65.9601V28.52H66.9601V27.52ZM71.0401 27.52V28.52H72.0401V27.52H71.0401ZM71.0401 25.76H72.0401V24.76H71.0401V25.76ZM66.9601 25.76V24.76H65.9601V25.76H66.9601ZM66.4101 31.4V25.68H64.4101V31.4H66.4101ZM66.4101 25.68C66.4101 25.5775 66.4326 25.5121 66.4653 25.4583L64.7549 24.4217C64.5208 24.8079 64.4101 25.2358 64.4101 25.68H66.4101ZM66.472 25.447C66.5191 25.3669 66.577 25.3091 66.6571 25.2619L65.6431 23.5381C65.2698 23.7576 64.9677 24.0598 64.7481 24.433L66.472 25.447ZM66.6571 25.2619C66.7278 25.2203 66.7991 25.2 66.8901 25.2V23.2C66.4478 23.2 66.0257 23.313 65.6431 23.5381L66.6571 25.2619ZM66.8901 25.2H71.1201V23.2L66.8901 23.2V25.2ZM71.1201 25.2C71.2226 25.2 71.2879 25.2226 71.3418 25.2552L72.3784 23.5448C71.9922 23.3108 71.5643 23.2 71.1201 23.2V25.2ZM71.3531 25.2619C71.4332 25.3091 71.491 25.3669 71.5381 25.447L73.262 24.433C73.0425 24.0598 72.7403 23.7576 72.3671 23.5381L71.3531 25.2619ZM71.5564 25.4769C71.5893 25.5285 71.6101 25.5872 71.6101 25.68H73.6101C73.6101 25.2261 73.4909 24.7915 73.2437 24.4031L71.5564 25.4769ZM71.6101 25.68V31.4H73.6101V25.68H71.6101ZM72.6101 30.4H71.0401V32.4H72.6101V30.4ZM72.0401 31.4V29.08H70.0401V31.4H72.0401ZM71.0401 28.08H66.9601V30.08H71.0401V28.08ZM65.9601 29.08V31.4H67.9601V29.08H65.9601ZM66.9601 30.4H65.4101V32.4H66.9601V30.4ZM66.9601 28.52H71.0401V26.52H66.9601V28.52ZM72.0401 27.52V25.76H70.0401V27.52H72.0401ZM71.0401 24.76H66.9601V26.76H71.0401V24.76ZM65.9601 25.76V27.52H67.9601V25.76H65.9601ZM79.3395 31.4L78.5735 32.0429L78.8732 32.4H79.3395V31.4ZM77.2495 28.91V27.91L75.1045 27.91L76.4835 29.5529L77.2495 28.91ZM79.2795 28.91L80.0425 28.2637L79.743 27.91H79.2795V28.91ZM80.9395 30.87H81.9395V30.5034L81.7025 30.2237L80.9395 30.87ZM80.9395 31.4V32.4H81.9395V31.4H80.9395ZM73.7495 31.4H72.7495V32.4H73.7495V31.4ZM73.7495 24.21V23.21H72.7495V24.21L73.7495 24.21ZM80.1995 24.41L79.6811 25.2653L79.6924 25.2719L80.1995 24.41ZM80.7395 24.95L79.8775 25.457L79.883 25.4663L79.8887 25.4755L80.7395 24.95ZM80.7395 28.29L79.8887 27.7645L79.883 27.7737L79.8775 27.783L80.7395 28.29ZM80.1995 28.83L79.6924 27.968L79.6812 27.9748L80.1995 28.83ZM79.4595 29.03L79.4595 28.03L79.457 28.03L79.4595 29.03ZM75.2995 29.04L75.297 28.04L74.2995 28.0424V29.04H75.2995ZM75.2995 31.4V32.4H76.2995V31.4H75.2995ZM75.2995 27.47H74.2995V28.47H75.2995V27.47ZM79.3795 27.47V28.47H80.3795V27.47H79.3795ZM79.3795 25.76H80.3795V24.76H79.3795V25.76ZM75.2995 25.76V24.76H74.2995V25.76H75.2995ZM80.1054 30.7571L78.0154 28.2671L76.4835 29.5529L78.5735 32.0429L80.1054 30.7571ZM77.2495 29.91H79.2795V27.91H77.2495V29.91ZM78.5164 29.5563L80.1764 31.5163L81.7025 30.2237L80.0425 28.2637L78.5164 29.5563ZM79.9395 30.87V31.4H81.9395V30.87H79.9395ZM80.9395 30.4H79.3395V32.4H80.9395V30.4ZM74.7495 31.4V24.21L72.7495 24.21V31.4H74.7495ZM73.7495 25.21H79.4595V23.21H73.7495V25.21ZM79.4595 25.21C79.5619 25.21 79.6273 25.2326 79.6812 25.2652L80.7178 23.5548C80.3316 23.3208 79.9036 23.21 79.4595 23.21V25.21ZM79.6924 25.2719C79.7725 25.3191 79.8304 25.3769 79.8775 25.457L81.6014 24.443C81.3818 24.0698 81.0797 23.7676 80.7065 23.5481L79.6924 25.2719ZM79.8887 25.4755C79.931 25.5441 79.9495 25.6088 79.9495 25.69H81.9495C81.9495 25.2379 81.8279 24.8093 81.5903 24.4245L79.8887 25.4755ZM79.9495 25.69V27.55H81.9495V25.69H79.9495ZM79.9495 27.55C79.9495 27.6312 79.931 27.6959 79.8887 27.7645L81.5903 28.8155C81.8279 28.4307 81.9495 28.0021 81.9495 27.55H79.9495ZM79.8775 27.783C79.8304 27.8631 79.7725 27.9209 79.6924 27.9681L80.7065 29.6919C81.0797 29.4724 81.3818 29.1702 81.6014 28.797L79.8775 27.783ZM79.6812 27.9748C79.6273 28.0074 79.5619 28.03 79.4595 28.03V30.03C79.9036 30.03 80.3316 29.9192 80.7178 29.6852L79.6812 27.9748ZM79.457 28.03L75.297 28.04L75.3019 30.04L79.4619 30.03L79.457 28.03ZM74.2995 29.04V31.4H76.2995V29.04H74.2995ZM75.2995 30.4H73.7495V32.4H75.2995V30.4ZM75.2995 28.47L79.3795 28.47V26.47L75.2995 26.47V28.47ZM80.3795 27.47V25.76H78.3795V27.47H80.3795ZM79.3795 24.76H75.2995V26.76L79.3795 26.76V24.76ZM74.2995 25.76V27.47H76.2995V25.76H74.2995Z" fill="#00BFFF" mask="url(#path-1-outside-1_1_17)"/>
<mask id="path-3-outside-2_1_17" maskUnits="userSpaceOnUse" x="34" y="32" width="82" height="17" fill="black">
<rect fill="white" x="34" y="32" width="82" height="17"/>
<path d="M35.18 48V33.6H46.06C46.5933 33.6 47.08 33.7333 47.52 34C47.9733 34.2667 48.3333 34.6267 48.6 35.08C48.88 35.52 49.02 36.0133 49.02 36.56V39.26C49.02 39.4333 49.0067 39.6 48.98 39.76C48.9667 39.9067 48.9333 40.0467 48.88 40.18C49.08 40.4333 49.2467 40.7267 49.38 41.06C49.5133 41.3933 49.58 41.7267 49.58 42.06V45.04C49.58 45.5733 49.44 46.0667 49.16 46.52C48.8933 46.9733 48.5333 47.3333 48.08 47.6C47.64 47.8667 47.1467 48 46.6 48H35.18ZM38.28 44.88H46.44V42.24H38.28V44.88ZM38.28 39.12H45.88V36.72H38.28V39.12ZM51.7806 48V33.58H54.8806V44.88H66.1806V48H51.7806ZM67.3866 48V36.56C67.3866 36.0133 67.5199 35.52 67.7866 35.08C68.0532 34.6267 68.4132 34.2667 68.8666 34C69.3199 33.7333 69.8132 33.6 70.3466 33.6H78.8066C79.3532 33.6 79.8466 33.7333 80.2866 34C80.7399 34.2667 81.0999 34.6267 81.3666 35.08C81.6466 35.52 81.7866 36.0133 81.7866 36.56V48H78.6466V43.36H70.4866V48H67.3866ZM70.4866 40.24H78.6466V36.72H70.4866V40.24ZM84.1053 48V33.6H95.5253C96.072 33.6 96.5653 33.7333 97.0053 34C97.4586 34.2667 97.8186 34.6267 98.0853 35.08C98.3653 35.52 98.5053 36.0133 98.5053 36.56V45.04C98.5053 45.5733 98.3653 46.0667 98.0853 46.52C97.8186 46.9733 97.4586 47.3333 97.0053 47.6C96.5653 47.8667 96.072 48 95.5253 48H84.1053ZM87.1853 44.88H95.3653V36.72H87.1853V44.88ZM100.785 48V33.6H114.085V36.72H103.925V39.24H112.105V42.36H103.925V44.88H114.085V48H100.785Z"/>
</mask>
<path d="M35.18 48V33.6H46.06C46.5933 33.6 47.08 33.7333 47.52 34C47.9733 34.2667 48.3333 34.6267 48.6 35.08C48.88 35.52 49.02 36.0133 49.02 36.56V39.26C49.02 39.4333 49.0067 39.6 48.98 39.76C48.9667 39.9067 48.9333 40.0467 48.88 40.18C49.08 40.4333 49.2467 40.7267 49.38 41.06C49.5133 41.3933 49.58 41.7267 49.58 42.06V45.04C49.58 45.5733 49.44 46.0667 49.16 46.52C48.8933 46.9733 48.5333 47.3333 48.08 47.6C47.64 47.8667 47.1467 48 46.6 48H35.18ZM38.28 44.88H46.44V42.24H38.28V44.88ZM38.28 39.12H45.88V36.72H38.28V39.12ZM51.7806 48V33.58H54.8806V44.88H66.1806V48H51.7806ZM67.3866 48V36.56C67.3866 36.0133 67.5199 35.52 67.7866 35.08C68.0532 34.6267 68.4132 34.2667 68.8666 34C69.3199 33.7333 69.8132 33.6 70.3466 33.6H78.8066C79.3532 33.6 79.8466 33.7333 80.2866 34C80.7399 34.2667 81.0999 34.6267 81.3666 35.08C81.6466 35.52 81.7866 36.0133 81.7866 36.56V48H78.6466V43.36H70.4866V48H67.3866ZM70.4866 40.24H78.6466V36.72H70.4866V40.24ZM84.1053 48V33.6H95.5253C96.072 33.6 96.5653 33.7333 97.0053 34C97.4586 34.2667 97.8186 34.6267 98.0853 35.08C98.3653 35.52 98.5053 36.0133 98.5053 36.56V45.04C98.5053 45.5733 98.3653 46.0667 98.0853 46.52C97.8186 46.9733 97.4586 47.3333 97.0053 47.6C96.5653 47.8667 96.072 48 95.5253 48H84.1053ZM87.1853 44.88H95.3653V36.72H87.1853V44.88ZM100.785 48V33.6H114.085V36.72H103.925V39.24H112.105V42.36H103.925V44.88H114.085V48H100.785Z" fill="white"/>
<path d="M35.18 48H34.18V49H35.18V48ZM35.18 33.6V32.6H34.18V33.6H35.18ZM47.52 34L47.0017 34.8553L47.013 34.8619L47.52 34ZM48.6 35.08L47.7381 35.587L47.7469 35.6021L47.7563 35.6169L48.6 35.08ZM48.98 39.76L47.9936 39.5956L47.9875 39.6324L47.9841 39.6695L48.98 39.76ZM48.88 40.18L47.9515 39.8086L47.7367 40.3457L48.0951 40.7996L48.88 40.18ZM49.38 41.06L48.4515 41.4314L48.4515 41.4314L49.38 41.06ZM49.16 46.52L48.3092 45.9945L48.3035 46.0037L48.2981 46.013L49.16 46.52ZM48.08 47.6L47.5729 46.738L47.5617 46.7448L48.08 47.6ZM38.28 44.88H37.28V45.88H38.28V44.88ZM46.44 44.88V45.88H47.44V44.88H46.44ZM46.44 42.24H47.44V41.24H46.44V42.24ZM38.28 42.24V41.24H37.28V42.24H38.28ZM38.28 39.12H37.28V40.12H38.28V39.12ZM45.88 39.12V40.12H46.88V39.12H45.88ZM45.88 36.72H46.88V35.72H45.88V36.72ZM38.28 36.72V35.72H37.28V36.72H38.28ZM36.18 48V33.6H34.18V48H36.18ZM35.18 34.6H46.06V32.6H35.18V34.6ZM46.06 34.6C46.4176 34.6 46.7239 34.6868 47.0017 34.8552L48.0383 33.1448C47.4361 32.7798 46.7691 32.6 46.06 32.6V34.6ZM47.013 34.8619C47.3198 35.0424 47.5576 35.2802 47.7381 35.587L49.4619 34.573C49.1091 33.9731 48.6269 33.4909 48.027 33.1381L47.013 34.8619ZM47.7563 35.6169C47.9292 35.8885 48.02 36.1939 48.02 36.56H50.02C50.02 35.8328 49.8308 35.1515 49.4437 34.5431L47.7563 35.6169ZM48.02 36.56V39.26H50.02V36.56H48.02ZM48.02 39.26C48.02 39.382 48.0106 39.4935 47.9936 39.5956L49.9664 39.9244C50.0027 39.7065 50.02 39.4847 50.02 39.26H48.02ZM47.9841 39.6695C47.9793 39.7222 47.968 39.7674 47.9515 39.8086L49.8085 40.5514C49.8987 40.3259 49.954 40.0911 49.9759 39.8505L47.9841 39.6695ZM48.0951 40.7996C48.2293 40.9696 48.3499 41.1774 48.4515 41.4314L50.3085 40.6886C50.1434 40.2759 49.9307 39.897 49.6649 39.5604L48.0951 40.7996ZM48.4515 41.4314C48.5413 41.6558 48.58 41.8634 48.58 42.06H50.58C50.58 41.5899 50.4854 41.1309 50.3085 40.6886L48.4515 41.4314ZM48.58 42.06V45.04H50.58V42.06H48.58ZM48.58 45.04C48.58 45.3879 48.4916 45.6993 48.3092 45.9945L50.0108 47.0455C50.3884 46.4341 50.58 45.7588 50.58 45.04H48.58ZM48.2981 46.013C48.1176 46.3198 47.8798 46.5576 47.573 46.7381L48.587 48.4619C49.1869 48.1091 49.6691 47.6269 50.0219 47.027L48.2981 46.013ZM47.5617 46.7448C47.2879 46.9108 46.9758 47 46.6 47V49C47.3175 49 47.9921 48.8226 48.5983 48.4552L47.5617 46.7448ZM46.6 47H35.18V49H46.6V47ZM38.28 45.88H46.44V43.88H38.28V45.88ZM47.44 44.88V42.24H45.44V44.88H47.44ZM46.44 41.24H38.28V43.24H46.44V41.24ZM37.28 42.24V44.88H39.28V42.24H37.28ZM38.28 40.12H45.88V38.12H38.28V40.12ZM46.88 39.12V36.72H44.88V39.12H46.88ZM45.88 35.72H38.28V37.72H45.88V35.72ZM37.28 36.72V39.12H39.28V36.72H37.28ZM51.7806 48H50.7806V49H51.7806V48ZM51.7806 33.58V32.58H50.7806V33.58H51.7806ZM54.8806 33.58H55.8806V32.58H54.8806V33.58ZM54.8806 44.88H53.8806V45.88H54.8806V44.88ZM66.1806 44.88H67.1806V43.88H66.1806V44.88ZM66.1806 48V49H67.1806V48H66.1806ZM52.7806 48V33.58H50.7806V48H52.7806ZM51.7806 34.58H54.8806V32.58H51.7806V34.58ZM53.8806 33.58V44.88H55.8806V33.58H53.8806ZM54.8806 45.88H66.1806V43.88H54.8806V45.88ZM65.1806 44.88V48H67.1806V44.88H65.1806ZM66.1806 47H51.7806V49H66.1806V47ZM67.3866 48H66.3866V49H67.3866V48ZM67.7866 35.08L68.6418 35.5983L68.6485 35.587L67.7866 35.08ZM68.8666 34L68.3595 33.1381L68.3595 33.1381L68.8666 34ZM80.2866 34L79.7682 34.8553L79.7795 34.8619L80.2866 34ZM81.3666 35.08L80.5046 35.587L80.5135 35.6021L80.5229 35.6169L81.3666 35.08ZM81.7866 48V49H82.7866V48H81.7866ZM78.6466 48H77.6466V49H78.6466V48ZM78.6466 43.36H79.6466V42.36H78.6466V43.36ZM70.4866 43.36V42.36H69.4866V43.36H70.4866ZM70.4866 48V49H71.4866V48H70.4866ZM70.4866 40.24H69.4866V41.24H70.4866V40.24ZM78.6466 40.24V41.24H79.6466V40.24H78.6466ZM78.6466 36.72H79.6466V35.72H78.6466V36.72ZM70.4866 36.72V35.72H69.4866V36.72H70.4866ZM68.3866 48V36.56H66.3866V48H68.3866ZM68.3866 36.56C68.3866 36.1842 68.4758 35.8721 68.6418 35.5983L66.9314 34.5617C66.564 35.1679 66.3866 35.8425 66.3866 36.56H68.3866ZM68.6485 35.587C68.829 35.2802 69.0668 35.0424 69.3736 34.8619L68.3595 33.1381C67.7597 33.4909 67.2775 33.9731 66.9246 34.573L68.6485 35.587ZM69.3736 34.8619C69.671 34.687 69.9889 34.6 70.3466 34.6V32.6C69.6376 32.6 68.9688 32.7797 68.3595 33.1381L69.3736 34.8619ZM70.3466 34.6H78.8066V32.6H70.3466V34.6ZM78.8066 34.6C79.1824 34.6 79.4944 34.6892 79.7683 34.8552L80.8049 33.1448C80.1987 32.7774 79.5241 32.6 78.8066 32.6V34.6ZM79.7795 34.8619C80.0863 35.0424 80.3242 35.2802 80.5046 35.587L82.2285 34.573C81.8756 33.9731 81.3935 33.4909 80.7936 33.1381L79.7795 34.8619ZM80.5229 35.6169C80.6957 35.8885 80.7866 36.1939 80.7866 36.56H82.7866C82.7866 35.8328 82.5974 35.1515 82.2102 34.5431L80.5229 35.6169ZM80.7866 36.56V48H82.7866V36.56H80.7866ZM81.7866 47H78.6466V49H81.7866V47ZM79.6466 48V43.36H77.6466V48H79.6466ZM78.6466 42.36H70.4866V44.36H78.6466V42.36ZM69.4866 43.36V48H71.4866V43.36H69.4866ZM70.4866 47H67.3866V49H70.4866V47ZM70.4866 41.24H78.6466V39.24H70.4866V41.24ZM79.6466 40.24V36.72H77.6466V40.24H79.6466ZM78.6466 35.72H70.4866V37.72H78.6466V35.72ZM69.4866 36.72V40.24H71.4866V36.72H69.4866ZM84.1053 48H83.1053V49H84.1053V48ZM84.1053 33.6V32.6H83.1053V33.6H84.1053ZM97.0053 34L96.487 34.8553L96.4983 34.8619L97.0053 34ZM98.0853 35.08L97.2234 35.587L97.2323 35.6021L97.2417 35.6169L98.0853 35.08ZM98.0853 46.52L97.2345 45.9945L97.2288 46.0037L97.2234 46.013L98.0853 46.52ZM97.0053 47.6L96.4982 46.738L96.487 46.7448L97.0053 47.6ZM87.1853 44.88H86.1853V45.88H87.1853V44.88ZM95.3653 44.88V45.88H96.3653V44.88H95.3653ZM95.3653 36.72H96.3653V35.72H95.3653V36.72ZM87.1853 36.72V35.72H86.1853V36.72H87.1853ZM85.1053 48V33.6H83.1053V48H85.1053ZM84.1053 34.6H95.5253V32.6H84.1053V34.6ZM95.5253 34.6C95.9011 34.6 96.2132 34.6892 96.487 34.8552L97.5236 33.1448C96.9175 32.7774 96.2428 32.6 95.5253 32.6V34.6ZM96.4983 34.8619C96.8051 35.0424 97.0429 35.2802 97.2234 35.587L98.9472 34.573C98.5944 33.9731 98.1122 33.4909 97.5123 33.1381L96.4983 34.8619ZM97.2417 35.6169C97.4145 35.8885 97.5053 36.1939 97.5053 36.56H99.5053C99.5053 35.8328 99.3161 35.1515 98.929 34.5431L97.2417 35.6169ZM97.5053 36.56V45.04H99.5053V36.56H97.5053ZM97.5053 45.04C97.5053 45.3879 97.4169 45.6993 97.2345 45.9945L98.9361 47.0455C99.3137 46.4341 99.5053 45.7588 99.5053 45.04H97.5053ZM97.2234 46.013C97.0429 46.3198 96.8051 46.5576 96.4983 46.7381L97.5123 48.4619C98.1122 48.1091 98.5944 47.6269 98.9472 47.027L97.2234 46.013ZM96.487 46.7448C96.2132 46.9108 95.9011 47 95.5253 47V49C96.2428 49 96.9175 48.8226 97.5236 48.4552L96.487 46.7448ZM95.5253 47H84.1053V49H95.5253V47ZM87.1853 45.88H95.3653V43.88H87.1853V45.88ZM96.3653 44.88V36.72H94.3653V44.88H96.3653ZM95.3653 35.72H87.1853V37.72H95.3653V35.72ZM86.1853 36.72V44.88H88.1853V36.72H86.1853ZM100.785 48H99.785V49H100.785V48ZM100.785 33.6V32.6H99.785V33.6H100.785ZM114.085 33.6H115.085V32.6H114.085V33.6ZM114.085 36.72V37.72H115.085V36.72H114.085ZM103.925 36.72V35.72H102.925V36.72H103.925ZM103.925 39.24H102.925V40.24H103.925V39.24ZM112.105 39.24H113.105V38.24H112.105V39.24ZM112.105 42.36V43.36H113.105V42.36H112.105ZM103.925 42.36V41.36H102.925V42.36H103.925ZM103.925 44.88H102.925V45.88H103.925V44.88ZM114.085 44.88H115.085V43.88H114.085V44.88ZM114.085 48V49H115.085V48H114.085ZM101.785 48V33.6H99.785V48H101.785ZM100.785 34.6H114.085V32.6H100.785V34.6ZM113.085 33.6V36.72H115.085V33.6H113.085ZM114.085 35.72H103.925V37.72H114.085V35.72ZM102.925 36.72V39.24H104.925V36.72H102.925ZM103.925 40.24H112.105V38.24H103.925V40.24ZM111.105 39.24V42.36H113.105V39.24H111.105ZM112.105 41.36H103.925V43.36H112.105V41.36ZM102.925 42.36V44.88H104.925V42.36H102.925ZM103.925 45.88H114.085V43.88H103.925V45.88ZM113.085 44.88V48H115.085V44.88H113.085ZM114.085 47H100.785V49H114.085V47Z" fill="#00BFFF" mask="url(#path-3-outside-2_1_17)"/>
<mask id="path-5-outside-3_1_17" maskUnits="userSpaceOnUse" x="1" y="13" width="34" height="31" fill="black">
<rect fill="white" x="1" y="13" width="34" height="31"/>
<path d="M9.216 43C7.04 43 5.44 42.904 4.416 42.712C3.392 42.52 2.88 42.296 2.88 42.04L4.8 37.864C5.536 37.992 7.36 38.12 10.272 38.248C13.216 38.344 17.248 38.392 22.368 38.392H23.28C24.656 38.392 25.632 38.152 26.208 37.672C26.784 37.16 27.072 36.312 27.072 35.128V34.168C27.072 33.048 26.832 32.248 26.352 31.768C25.904 31.288 24.88 31.048 23.28 31.048H12.144C8.912 31.048 6.56 30.456 5.088 29.272C3.616 28.056 2.88 26.088 2.88 23.368V22.6C2.88 21.192 3.136 19.896 3.648 18.712C4.192 17.528 5.104 16.584 6.384 15.88C7.664 15.144 9.424 14.776 11.664 14.776H24.72C26.896 14.776 28.656 14.888 30 15.112C31.344 15.336 32.016 15.576 32.016 15.832L31.056 19.864C30.224 19.768 28.336 19.672 25.392 19.576C22.448 19.448 18.496 19.384 13.536 19.384L13.008 19.336C11.536 19.336 10.544 19.64 10.032 20.248C9.52 20.824 9.248 21.56 9.216 22.456V23.272C9.216 24.328 9.504 25.128 10.08 25.672C10.688 26.184 11.68 26.44 13.056 26.44H23.712C25.76 26.44 27.504 26.648 28.944 27.064C30.384 27.48 31.488 28.248 32.256 29.368C33.024 30.456 33.408 32.072 33.408 34.216V34.984C33.408 37.384 32.784 39.32 31.536 40.792C30.32 42.264 28.192 43 25.152 43H9.216Z"/>
</mask>
<path d="M9.216 43C7.04 43 5.44 42.904 4.416 42.712C3.392 42.52 2.88 42.296 2.88 42.04L4.8 37.864C5.536 37.992 7.36 38.12 10.272 38.248C13.216 38.344 17.248 38.392 22.368 38.392H23.28C24.656 38.392 25.632 38.152 26.208 37.672C26.784 37.16 27.072 36.312 27.072 35.128V34.168C27.072 33.048 26.832 32.248 26.352 31.768C25.904 31.288 24.88 31.048 23.28 31.048H12.144C8.912 31.048 6.56 30.456 5.088 29.272C3.616 28.056 2.88 26.088 2.88 23.368V22.6C2.88 21.192 3.136 19.896 3.648 18.712C4.192 17.528 5.104 16.584 6.384 15.88C7.664 15.144 9.424 14.776 11.664 14.776H24.72C26.896 14.776 28.656 14.888 30 15.112C31.344 15.336 32.016 15.576 32.016 15.832L31.056 19.864C30.224 19.768 28.336 19.672 25.392 19.576C22.448 19.448 18.496 19.384 13.536 19.384L13.008 19.336C11.536 19.336 10.544 19.64 10.032 20.248C9.52 20.824 9.248 21.56 9.216 22.456V23.272C9.216 24.328 9.504 25.128 10.08 25.672C10.688 26.184 11.68 26.44 13.056 26.44H23.712C25.76 26.44 27.504 26.648 28.944 27.064C30.384 27.48 31.488 28.248 32.256 29.368C33.024 30.456 33.408 32.072 33.408 34.216V34.984C33.408 37.384 32.784 39.32 31.536 40.792C30.32 42.264 28.192 43 25.152 43H9.216Z" fill="white"/>
<path d="M4.416 42.712L4.60029 41.7291L4.60029 41.7291L4.416 42.712ZM2.88 42.04L1.97143 41.6223L1.88 41.8211V42.04H2.88ZM4.8 37.864L4.97134 36.8788L4.21298 36.7469L3.89143 37.4463L4.8 37.864ZM10.272 38.248L10.2281 39.2471L10.2394 39.2475L10.272 38.248ZM26.208 37.672L26.8482 38.4402L26.8604 38.43L26.8724 38.4194L26.208 37.672ZM26.352 31.768L25.6209 32.4503L25.6327 32.4629L25.6449 32.4751L26.352 31.768ZM5.088 29.272L4.45106 30.043L4.46124 30.0512L5.088 29.272ZM3.648 18.712L2.73932 18.2945L2.73462 18.3047L2.73014 18.3151L3.648 18.712ZM6.384 15.88L6.86592 16.7562L6.87424 16.7516L6.88247 16.7469L6.384 15.88ZM30 15.112L30.1644 14.1256L30.1644 14.1256L30 15.112ZM32.016 15.832L32.9888 16.0636L33.016 15.9494V15.832H32.016ZM31.056 19.864L30.9414 20.8574L31.8232 20.9592L32.0288 20.0956L31.056 19.864ZM25.392 19.576L25.3486 20.5751L25.3594 20.5755L25.392 19.576ZM13.536 19.384L13.4455 20.3799L13.4906 20.384H13.536V19.384ZM13.008 19.336L13.0985 18.3401L13.0534 18.336H13.008V19.336ZM10.032 20.248L10.7794 20.9124L10.7883 20.9024L10.7969 20.8921L10.032 20.248ZM9.216 22.456L8.21664 22.4203L8.216 22.4381V22.456H9.216ZM10.08 25.672L9.39338 26.399L9.41408 26.4186L9.43586 26.4369L10.08 25.672ZM28.944 27.064L29.2215 26.1033L29.2215 26.1033L28.944 27.064ZM32.256 29.368L31.4312 29.9336L31.439 29.9447L32.256 29.368ZM31.536 40.792L30.7732 40.1453L30.765 40.1551L31.536 40.792ZM9.216 42C7.05026 42 5.52802 41.9031 4.60029 41.7291L4.23171 43.6949C5.35198 43.9049 7.02974 44 9.216 44V42ZM4.60029 41.7291C4.11057 41.6373 3.8155 41.5498 3.66482 41.4838C3.58686 41.4497 3.60653 41.4464 3.65994 41.4965C3.72034 41.5531 3.88 41.737 3.88 42.04H1.88C1.88 42.471 2.10366 42.7789 2.29206 42.9555C2.47347 43.1256 2.68514 43.2383 2.86318 43.3162C3.2245 43.4742 3.69743 43.5947 4.23171 43.6949L4.60029 41.7291ZM3.78857 42.4577L5.70857 38.2817L3.89143 37.4463L1.97143 41.6223L3.78857 42.4577ZM4.62866 38.8492C5.44201 38.9907 7.33907 39.12 10.2281 39.247L10.3159 37.249C7.38093 37.12 5.62999 36.9933 4.97134 36.8788L4.62866 38.8492ZM10.2394 39.2475C13.1993 39.344 17.2438 39.392 22.368 39.392V37.392C17.2522 37.392 13.2327 37.344 10.3046 37.2485L10.2394 39.2475ZM22.368 39.392H23.28V37.392H22.368V39.392ZM23.28 39.392C24.7175 39.392 25.9939 39.1521 26.8482 38.4402L25.5678 36.9038C25.2701 37.1519 24.5945 37.392 23.28 37.392V39.392ZM26.8724 38.4194C27.7542 37.6355 28.072 36.4449 28.072 35.128H26.072C26.072 36.1791 25.8138 36.6845 25.5436 36.9246L26.8724 38.4194ZM28.072 35.128V34.168H26.072V35.128H28.072ZM28.072 34.168C28.072 32.9465 27.8172 31.819 27.0591 31.0609L25.6449 32.4751C25.8468 32.677 26.072 33.1495 26.072 34.168H28.072ZM27.0831 31.0857C26.665 30.6378 26.0749 30.3947 25.4762 30.2544C24.8614 30.1103 24.1214 30.048 23.28 30.048V32.048C24.0386 32.048 24.6106 32.1057 25.0198 32.2016C25.4451 32.3013 25.591 32.4182 25.6209 32.4503L27.0831 31.0857ZM23.28 30.048H12.144V32.048H23.28V30.048ZM12.144 30.048C8.99293 30.048 6.92105 29.4631 5.71476 28.4928L4.46124 30.0512C6.19895 31.4489 8.83107 32.048 12.144 32.048V30.048ZM5.72488 28.501C4.56808 27.5454 3.88 25.9215 3.88 23.368H1.88C1.88 26.2545 2.66392 28.5666 4.45112 30.043L5.72488 28.501ZM3.88 23.368V22.6H1.88V23.368H3.88ZM3.88 22.6C3.88 21.3159 4.11283 20.1565 4.56586 19.1089L2.73014 18.3151C2.15917 19.6355 1.88 21.0681 1.88 22.6H3.88ZM4.55668 19.1295C5.00051 18.1635 5.7498 17.3701 6.86592 16.7562L5.90208 15.0038C4.4582 15.7979 3.38349 16.8925 2.73932 18.2945L4.55668 19.1295ZM6.88247 16.7469C7.95202 16.1319 9.5156 15.776 11.664 15.776V13.776C9.3324 13.776 7.37598 14.1561 5.88553 15.0131L6.88247 16.7469ZM11.664 15.776H24.72V13.776H11.664V15.776ZM24.72 15.776C26.8693 15.776 28.5682 15.8872 29.8356 16.0984L30.1644 14.1256C28.7438 13.8888 26.9227 13.776 24.72 13.776V15.776ZM29.8356 16.0984C30.4916 16.2077 30.9252 16.3123 31.1757 16.4017C31.3069 16.4486 31.3272 16.4705 31.2962 16.4476C31.2865 16.4404 31.016 16.2436 31.016 15.832H33.016C33.016 15.2924 32.6615 14.9696 32.4839 14.8384C32.2848 14.6915 32.0531 14.5914 31.8483 14.5183C31.4268 14.3677 30.8524 14.2403 30.1644 14.1256L29.8356 16.0984ZM31.0432 15.6004L30.0832 19.6324L32.0288 20.0956L32.9888 16.0636L31.0432 15.6004ZM31.1706 18.8706C30.2894 18.7689 28.3569 18.6721 25.4246 18.5765L25.3594 20.5755C28.3151 20.6718 30.1586 20.7671 30.9414 20.8574L31.1706 18.8706ZM25.4354 18.5769C22.4705 18.448 18.5022 18.384 13.536 18.384V20.384C18.4898 20.384 22.4255 20.448 25.3486 20.5751L25.4354 18.5769ZM13.6265 18.3881L13.0985 18.3401L12.9175 20.3319L13.4455 20.3799L13.6265 18.3881ZM13.008 18.336C11.4735 18.336 10.0801 18.6384 9.26709 19.6039L10.7969 20.8921C11.0079 20.6416 11.5985 20.336 13.008 20.336V18.336ZM9.28459 19.5836C8.59342 20.3612 8.25551 21.3318 8.21664 22.4203L10.2154 22.4917C10.2405 21.7882 10.4466 21.2868 10.7794 20.9124L9.28459 19.5836ZM8.216 22.456V23.272H10.216V22.456H8.216ZM8.216 23.272C8.216 24.5076 8.55718 25.6093 9.39338 26.399L10.7666 24.945C10.4508 24.6467 10.216 24.1484 10.216 23.272H8.216ZM9.43586 26.4369C10.3156 27.1778 11.6007 27.44 13.056 27.44V25.44C11.7593 25.44 11.0604 25.1902 10.7241 24.9071L9.43586 26.4369ZM13.056 27.44H23.712V25.44H13.056V27.44ZM23.712 27.44C25.6979 27.44 27.3428 27.6423 28.6665 28.0247L29.2215 26.1033C27.6652 25.6537 25.8221 25.44 23.712 25.44V27.44ZM28.6665 28.0247C29.9084 28.3835 30.8082 29.0248 31.4313 29.9335L33.0807 28.8025C32.1678 27.4712 30.8596 26.5765 29.2215 26.1033L28.6665 28.0247ZM31.439 29.9447C32.0352 30.7893 32.408 32.163 32.408 34.216H34.408C34.408 31.981 34.0128 30.1227 33.073 28.7913L31.439 29.9447ZM32.408 34.216V34.984H34.408V34.216H32.408ZM32.408 34.984C32.408 37.2067 31.8335 38.8948 30.7732 40.1453L32.2988 41.4387C33.7345 39.7452 34.408 37.5613 34.408 34.984H32.408ZM30.765 40.1551C29.828 41.2894 28.0694 42 25.152 42V44C28.3146 44 30.812 43.2386 32.307 41.4289L30.765 40.1551ZM25.152 42H9.216V44H25.152V42Z" fill="#00BFFF" mask="url(#path-5-outside-3_1_17)"/>
</svg>
