<svg viewBox="0 0 243 80" fill="none" xmlns="http://www.w3.org/2000/svg">
<g filter="url(#filter0_i_0_1)">
<path d="M17.576 76C11.7733 76 7.50667 75.744 4.776 75.232C2.04533 74.72 0.68 74.1227 0.68 73.44L5.8 62.304C7.76267 62.6453 12.6267 62.9867 20.392 63.328C28.2427 63.584 38.9947 63.712 52.648 63.712H55.08C58.7493 63.712 61.352 63.072 62.888 61.792C64.424 60.4267 65.192 58.1653 65.192 55.008V52.448C65.192 49.4613 64.552 47.328 63.272 46.048C62.0773 44.768 59.3467 44.128 55.08 44.128H25.384C16.7653 44.128 10.4933 42.5493 6.568 39.392C2.64267 36.1493 0.68 30.9013 0.68 23.648V21.6C0.68 17.8453 1.36267 14.3893 2.728 11.232C4.17867 8.07466 6.61067 5.55733 10.024 3.68C13.4373 1.71733 18.1307 0.736 24.104 0.736H58.92C64.7227 0.736 69.416 1.03467 73 1.632C76.584 2.22933 78.376 2.86933 78.376 3.55199L75.816 14.304C73.5973 14.048 68.5627 13.792 60.712 13.536C52.8613 13.1947 42.3227 13.024 29.096 13.024L27.688 12.896C23.7627 12.896 21.1173 13.7067 19.752 15.328C18.3867 16.864 17.6613 18.8267 17.576 21.216V23.392C17.576 26.208 18.344 28.3413 19.88 29.792C21.5013 31.1573 24.1467 31.84 27.816 31.84H56.232C61.6933 31.84 66.344 32.3947 70.184 33.504C74.024 34.6133 76.968 36.6613 79.016 39.648C81.064 42.5493 82.088 46.8587 82.088 52.576V54.624C82.088 61.024 80.424 66.1867 77.096 70.112C73.8533 74.0373 68.1787 76 60.072 76H17.576Z" fill="white"/>
</g>
<g filter="url(#filter1_i_0_1)">
<path d="M88.664 48V29.952H79.64V24.96H102.68V29.952H93.656V48H88.664ZM105.137 48V24.96H126.417V29.952H110.161V33.984H123.249V38.976H110.161V43.008H126.417V48H105.137ZM129.605 48V24.928H134.565V43.008H152.645V48H129.605ZM154.543 48V24.928H159.503V43.008H177.583V48H154.543ZM179.512 48V29.696C179.512 28.8213 179.726 28.032 180.152 27.328C180.579 26.6027 181.155 26.0267 181.88 25.6C182.606 25.1733 183.395 24.96 184.248 24.96H197.784C198.659 24.96 199.448 25.1733 200.152 25.6C200.878 26.0267 201.454 26.6027 201.88 27.328C202.328 28.032 202.552 28.8213 202.552 29.696V48H197.528V40.576H184.472V48H179.512ZM184.472 35.584H197.528V29.952H184.472V35.584ZM224.086 48L217.398 40.032H223.894L229.206 46.304V48H224.086ZM206.198 48V24.992H224.47C225.345 24.992 226.134 25.2053 226.838 25.632C227.564 26.0587 228.14 26.6347 228.566 27.36C229.014 28.0853 229.238 28.8747 229.238 29.728V35.68C229.238 36.5333 229.014 37.3227 228.566 38.048C228.14 38.7733 227.564 39.3493 226.838 39.776C226.134 40.2027 225.345 40.416 224.47 40.416L211.158 40.448V48H206.198ZM211.158 35.424H224.214V29.952H211.158V35.424Z" fill="white"/>
</g>
<g filter="url(#filter2_i_0_1)">
<path d="M84.36 80V51.2H106.12C107.187 51.2 108.16 51.4667 109.04 52C109.947 52.5333 110.667 53.2533 111.2 54.16C111.76 55.04 112.04 56.0267 112.04 57.12V62.52C112.04 62.8667 112.013 63.2 111.96 63.52C111.933 63.8133 111.867 64.0933 111.76 64.36C112.16 64.8667 112.493 65.4533 112.76 66.12C113.027 66.7867 113.16 67.4533 113.16 68.12V74.08C113.16 75.1467 112.88 76.1333 112.32 77.04C111.787 77.9467 111.067 78.6667 110.16 79.2C109.28 79.7333 108.293 80 107.2 80H84.36ZM90.56 73.76H106.88V68.48H90.56V73.76ZM90.56 62.24H105.76V57.44H90.56V62.24ZM117.561 80V51.16H123.761V73.76H146.361V80H117.561ZM148.773 80V57.12C148.773 56.0267 149.04 55.04 149.573 54.16C150.106 53.2533 150.826 52.5333 151.733 52C152.64 51.4667 153.626 51.2 154.693 51.2H171.613C172.706 51.2 173.693 51.4667 174.573 52C175.48 52.5333 176.2 53.2533 176.733 54.16C177.293 55.04 177.573 56.0267 177.573 57.12V80H171.293V70.72H154.973V80H148.773ZM154.973 64.48H171.293V57.44H154.973V64.48ZM182.211 80V51.2H205.051C206.144 51.2 207.131 51.4667 208.011 52C208.917 52.5333 209.637 53.2533 210.171 54.16C210.731 55.04 211.011 56.0267 211.011 57.12V74.08C211.011 75.1467 210.731 76.1333 210.171 77.04C209.637 77.9467 208.917 78.6667 208.011 79.2C207.131 79.7333 206.144 80 205.051 80H182.211ZM188.371 73.76H204.731V57.44H188.371V73.76ZM215.57 80V51.2H242.17V57.44H221.85V62.48H238.21V68.72H221.85V73.76H242.17V80H215.57Z" fill="white"/>
</g>
<defs>
<filter id="filter0_i_0_1" x="0.68" y="0.735992" width="81.408" height="75.264" filterUnits="userSpaceOnUse" color-interpolation-filters="sRGB">
<feFlood flood-opacity="0" result="BackgroundImageFix"/>
<feBlend mode="normal" in="SourceGraphic" in2="BackgroundImageFix" result="shape"/>
<feColorMatrix in="SourceAlpha" type="matrix" values="0 0 0 0 0 0 0 0 0 0 0 0 0 0 0 0 0 0 127 0" result="hardAlpha"/>
<feOffset/>
<feGaussianBlur stdDeviation="5"/>
<feComposite in2="hardAlpha" operator="arithmetic" k2="-1" k3="1"/>
<feColorMatrix type="matrix" values="0 0 0 0 0 0 0 0 0 0.74902 0 0 0 0 1 0 0 0 1 0"/>
<feBlend mode="normal" in2="shape" result="effect1_innerShadow_0_1"/>
</filter>
<filter id="filter1_i_0_1" x="79.64" y="24.928" width="149.598" height="23.072" filterUnits="userSpaceOnUse" color-interpolation-filters="sRGB">
<feFlood flood-opacity="0" result="BackgroundImageFix"/>
<feBlend mode="normal" in="SourceGraphic" in2="BackgroundImageFix" result="shape"/>
<feColorMatrix in="SourceAlpha" type="matrix" values="0 0 0 0 0 0 0 0 0 0 0 0 0 0 0 0 0 0 127 0" result="hardAlpha"/>
<feOffset/>
<feGaussianBlur stdDeviation="3.5"/>
<feComposite in2="hardAlpha" operator="arithmetic" k2="-1" k3="1"/>
<feColorMatrix type="matrix" values="0 0 0 0 0 0 0 0 0 0.74902 0 0 0 0 1 0 0 0 1 0"/>
<feBlend mode="normal" in2="shape" result="effect1_innerShadow_0_1"/>
</filter>
<filter id="filter2_i_0_1" x="84.36" y="51.16" width="157.81" height="28.84" filterUnits="userSpaceOnUse" color-interpolation-filters="sRGB">
<feFlood flood-opacity="0" result="BackgroundImageFix"/>
<feBlend mode="normal" in="SourceGraphic" in2="BackgroundImageFix" result="shape"/>
<feColorMatrix in="SourceAlpha" type="matrix" values="0 0 0 0 0 0 0 0 0 0 0 0 0 0 0 0 0 0 127 0" result="hardAlpha"/>
<feOffset/>
<feGaussianBlur stdDeviation="3.5"/>
<feComposite in2="hardAlpha" operator="arithmetic" k2="-1" k3="1"/>
<feColorMatrix type="matrix" values="0 0 0 0 0 0 0 0 0 0.74902 0 0 0 0 1 0 0 0 1 0"/>
<feBlend mode="normal" in2="shape" result="effect1_innerShadow_0_1"/>
</filter>
</defs>
</svg>


