<svg viewBox="0 0 273 110" fill="none" xmlns="http://www.w3.org/2000/svg">
<g filter="url(#filter0_d_0_1)">
<path d="M32.576 91C26.7733 91 22.5067 90.744 19.776 90.232C17.0453 89.72 15.68 89.1227 15.68 88.44L20.8 77.304C22.7627 77.6453 27.6267 77.9867 35.392 78.328C43.2427 78.584 53.9947 78.712 67.648 78.712H70.08C73.7493 78.712 76.352 78.072 77.888 76.792C79.424 75.4267 80.192 73.1653 80.192 70.008V67.448C80.192 64.4613 79.552 62.328 78.272 61.048C77.0773 59.768 74.3467 59.128 70.08 59.128H40.384C31.7653 59.128 25.4933 57.5493 21.568 54.392C17.6427 51.1493 15.68 45.9013 15.68 38.648V36.6C15.68 32.8453 16.3627 29.3893 17.728 26.232C19.1787 23.0747 21.6107 20.5573 25.024 18.68C28.4373 16.7173 33.1307 15.736 39.104 15.736H73.92C79.7227 15.736 84.416 16.0347 88 16.632C91.584 17.2293 93.376 17.8693 93.376 18.552L90.816 29.304C88.5973 29.048 83.5627 28.792 75.712 28.536C67.8613 28.1947 57.3227 28.024 44.096 28.024L42.688 27.896C38.7627 27.896 36.1173 28.7067 34.752 30.328C33.3867 31.864 32.6613 33.8267 32.576 36.216V38.392C32.576 41.208 33.344 43.3413 34.88 44.792C36.5013 46.1573 39.1467 46.84 42.816 46.84H71.232C76.6933 46.84 81.344 47.3947 85.184 48.504C89.024 49.6133 91.968 51.6613 94.016 54.648C96.064 57.5493 97.088 61.8587 97.088 67.576V69.624C97.088 76.024 95.424 81.1867 92.096 85.112C88.8533 89.0373 83.1787 91 75.072 91H32.576Z" fill="white"/>
</g>
<g filter="url(#filter1_d_0_1)">
<path d="M103.664 63V44.952H94.64V39.96H117.68V44.952H108.656V63H103.664ZM120.137 63V39.96H141.417V44.952H125.161V48.984H138.249V53.976H125.161V58.008H141.417V63H120.137ZM144.605 63V39.928H149.565V58.008H167.645V63H144.605ZM169.543 63V39.928H174.503V58.008H192.583V63H169.543ZM194.512 63V44.696C194.512 43.8213 194.726 43.032 195.152 42.328C195.579 41.6027 196.155 41.0267 196.88 40.6C197.606 40.1733 198.395 39.96 199.248 39.96H212.784C213.659 39.96 214.448 40.1733 215.152 40.6C215.878 41.0267 216.454 41.6027 216.88 42.328C217.328 43.032 217.552 43.8213 217.552 44.696V63H212.528V55.576H199.472V63H194.512ZM199.472 50.584H212.528V44.952H199.472V50.584ZM239.086 63L232.398 55.032H238.894L244.206 61.304V63H239.086ZM221.198 63V39.992H239.47C240.345 39.992 241.134 40.2053 241.838 40.632C242.564 41.0587 243.14 41.6347 243.566 42.36C244.014 43.0853 244.238 43.8747 244.238 44.728V50.68C244.238 51.5333 244.014 52.3227 243.566 53.048C243.14 53.7733 242.564 54.3493 241.838 54.776C241.134 55.2027 240.345 55.416 239.47 55.416L226.158 55.448V63H221.198ZM226.158 50.424H239.214V44.952H226.158V50.424Z" fill="white"/>
</g>
<g filter="url(#filter2_d_0_1)">
<path d="M99.36 95V66.2H121.12C122.187 66.2 123.16 66.4667 124.04 67C124.947 67.5333 125.667 68.2533 126.2 69.16C126.76 70.04 127.04 71.0267 127.04 72.12V77.52C127.04 77.8667 127.013 78.2 126.96 78.52C126.933 78.8133 126.867 79.0933 126.76 79.36C127.16 79.8667 127.493 80.4533 127.76 81.12C128.027 81.7867 128.16 82.4533 128.16 83.12V89.08C128.16 90.1467 127.88 91.1333 127.32 92.04C126.787 92.9467 126.067 93.6667 125.16 94.2C124.28 94.7333 123.293 95 122.2 95H99.36ZM105.56 88.76H121.88V83.48H105.56V88.76ZM105.56 77.24H120.76V72.44H105.56V77.24ZM132.561 95V66.16H138.761V88.76H161.361V95H132.561ZM163.773 95V72.12C163.773 71.0267 164.04 70.04 164.573 69.16C165.106 68.2533 165.826 67.5333 166.733 67C167.64 66.4667 168.626 66.2 169.693 66.2H186.613C187.706 66.2 188.693 66.4667 189.573 67C190.48 67.5333 191.2 68.2533 191.733 69.16C192.293 70.04 192.573 71.0267 192.573 72.12V95H186.293V85.72H169.973V95H163.773ZM169.973 79.48H186.293V72.44H169.973V79.48ZM197.211 95V66.2H220.051C221.144 66.2 222.131 66.4667 223.011 67C223.917 67.5333 224.637 68.2533 225.171 69.16C225.731 70.04 226.011 71.0267 226.011 72.12V89.08C226.011 90.1467 225.731 91.1333 225.171 92.04C224.637 92.9467 223.917 93.6667 223.011 94.2C222.131 94.7333 221.144 95 220.051 95H197.211ZM203.371 88.76H219.731V72.44H203.371V88.76ZM230.57 95V66.2H257.17V72.44H236.85V77.48H253.21V83.72H236.85V88.76H257.17V95H230.57Z" fill="white"/>
</g>
<defs>
<filter id="filter0_d_0_1" x="0.68" y="0.735992" width="111.408" height="105.264" filterUnits="userSpaceOnUse" color-interpolation-filters="sRGB">
<feFlood flood-opacity="0" result="BackgroundImageFix"/>
<feColorMatrix in="SourceAlpha" type="matrix" values="0 0 0 0 0 0 0 0 0 0 0 0 0 0 0 0 0 0 127 0" result="hardAlpha"/>
<feOffset/>
<feGaussianBlur stdDeviation="7.5"/>
<feComposite in2="hardAlpha" operator="out"/>
<feColorMatrix type="matrix" values="0 0 0 0 0 0 0 0 0 0.74902 0 0 0 0 1 0 0 0 1 0"/>
<feBlend mode="normal" in2="BackgroundImageFix" result="effect1_dropShadow_0_1"/>
<feBlend mode="normal" in="SourceGraphic" in2="effect1_dropShadow_0_1" result="shape"/>
</filter>
<filter id="filter1_d_0_1" x="79.64" y="24.928" width="179.598" height="53.072" filterUnits="userSpaceOnUse" color-interpolation-filters="sRGB">
<feFlood flood-opacity="0" result="BackgroundImageFix"/>
<feColorMatrix in="SourceAlpha" type="matrix" values="0 0 0 0 0 0 0 0 0 0 0 0 0 0 0 0 0 0 127 0" result="hardAlpha"/>
<feOffset/>
<feGaussianBlur stdDeviation="7.5"/>
<feComposite in2="hardAlpha" operator="out"/>
<feColorMatrix type="matrix" values="0 0 0 0 0 0 0 0 0 0.74902 0 0 0 0 1 0 0 0 1 0"/>
<feBlend mode="normal" in2="BackgroundImageFix" result="effect1_dropShadow_0_1"/>
<feBlend mode="normal" in="SourceGraphic" in2="effect1_dropShadow_0_1" result="shape"/>
</filter>
<filter id="filter2_d_0_1" x="84.36" y="51.16" width="187.81" height="58.84" filterUnits="userSpaceOnUse" color-interpolation-filters="sRGB">
<feFlood flood-opacity="0" result="BackgroundImageFix"/>
<feColorMatrix in="SourceAlpha" type="matrix" values="0 0 0 0 0 0 0 0 0 0 0 0 0 0 0 0 0 0 127 0" result="hardAlpha"/>
<feOffset/>
<feGaussianBlur stdDeviation="7.5"/>
<feComposite in2="hardAlpha" operator="out"/>
<feColorMatrix type="matrix" values="0 0 0 0 0 0 0 0 0 0.74902 0 0 0 0 1 0 0 0 1 0"/>
<feBlend mode="normal" in2="BackgroundImageFix" result="effect1_dropShadow_0_1"/>
<feBlend mode="normal" in="SourceGraphic" in2="effect1_dropShadow_0_1" result="shape"/>
</filter>
</defs>
</svg>
