<svg width="115" height="33" viewBox="0 0 115 33" fill="none" xmlns="http://www.w3.org/2000/svg">
<g filter="url(#filter0_i_0_1)">
<path d="M7.56 33C5.06667 33 3.23333 32.89 2.06 32.67C0.886667 32.45 0.3 32.1933 0.3 31.9L2.5 27.115C3.34333 27.2617 5.43333 27.4083 8.77 27.555C12.1433 27.665 16.7633 27.72 22.63 27.72H23.675C25.2517 27.72 26.37 27.445 27.03 26.895C27.69 26.3083 28.02 25.3367 28.02 23.98V22.88C28.02 21.5967 27.745 20.68 27.195 20.13C26.6817 19.58 25.5083 19.305 23.675 19.305H10.915C7.21167 19.305 4.51667 18.6267 2.83 17.27C1.14333 15.8767 0.3 13.6217 0.3 10.505V9.625C0.3 8.01167 0.593334 6.52667 1.18 5.17C1.80333 3.81333 2.84833 2.73167 4.315 1.925C5.78167 1.08167 7.79833 0.66 10.365 0.66H25.325C27.8183 0.66 29.835 0.788333 31.375 1.045C32.915 1.30167 33.685 1.57667 33.685 1.87L32.585 6.49C31.6317 6.38 29.4683 6.27 26.095 6.16C22.7217 6.01333 18.1933 5.94 12.51 5.94L11.905 5.885C10.2183 5.885 9.08167 6.23333 8.495 6.93C7.90833 7.59 7.59667 8.43333 7.56 9.46V10.395C7.56 11.605 7.89 12.5217 8.55 13.145C9.24667 13.7317 10.3833 14.025 11.96 14.025H24.17C26.5167 14.025 28.515 14.2633 30.165 14.74C31.815 15.2167 33.08 16.0967 33.96 17.38C34.84 18.6267 35.28 20.4783 35.28 22.935V23.815C35.28 26.565 34.565 28.7833 33.135 30.47C31.7417 32.1567 29.3033 33 25.82 33H7.56Z" fill="white"/>
</g>
<g filter="url(#filter1_i_0_1)">
<path d="M37.53 19V10.54H33.3V8.2H44.1V10.54H39.87V19H37.53ZM45.2518 19V8.2H55.2268V10.54H47.6068V12.43H53.7418V14.77H47.6068V16.66H55.2268V19H45.2518ZM56.7212 19V8.185H59.0462V16.66H67.5212V19H56.7212ZM68.4107 19V8.185H70.7357V16.66H79.2107V19H68.4107ZM80.1151 19V10.42C80.1151 10.01 80.2151 9.64 80.4151 9.31C80.6151 8.97 80.8851 8.7 81.2251 8.5C81.5651 8.3 81.9351 8.2 82.3351 8.2H88.6801C89.0901 8.2 89.4601 8.3 89.7901 8.5C90.1301 8.7 90.4001 8.97 90.6001 9.31C90.8101 9.64 90.9151 10.01 90.9151 10.42V19H88.5601V15.52H82.4401V19H80.1151ZM82.4401 13.18H88.5601V10.54H82.4401V13.18ZM101.009 19L97.8742 15.265H100.919L103.409 18.205V19H101.009ZM92.6242 19V8.215H101.189C101.599 8.215 101.969 8.315 102.299 8.515C102.639 8.715 102.909 8.985 103.109 9.325C103.319 9.665 103.424 10.035 103.424 10.435V13.225C103.424 13.625 103.319 13.995 103.109 14.335C102.909 14.675 102.639 14.945 102.299 15.145C101.969 15.345 101.599 15.445 101.189 15.445L94.9492 15.46V19H92.6242ZM94.9492 13.105H101.069V10.54H94.9492V13.105Z" fill="white"/>
</g>
<g filter="url(#filter2_i_0_1)">
<path d="M39.121 33V19.32H49.457C49.9637 19.32 50.426 19.4467 50.844 19.7C51.2747 19.9533 51.6167 20.2953 51.87 20.726C52.136 21.144 52.269 21.6127 52.269 22.132V24.697C52.269 24.8617 52.2563 25.02 52.231 25.172C52.2183 25.3113 52.1867 25.4443 52.136 25.571C52.326 25.8117 52.4843 26.0903 52.611 26.407C52.7377 26.7237 52.801 27.0403 52.801 27.357V30.188C52.801 30.6947 52.668 31.1633 52.402 31.594C52.1487 32.0247 51.8067 32.3667 51.376 32.62C50.958 32.8733 50.4893 33 49.97 33H39.121ZM42.066 30.036H49.818V27.528H42.066V30.036ZM42.066 24.564H49.286V22.284H42.066V24.564ZM54.8916 33V19.301H57.8366V30.036H68.5716V33H54.8916ZM69.7172 33V22.132C69.7172 21.6127 69.8439 21.144 70.0972 20.726C70.3506 20.2953 70.6926 19.9533 71.1232 19.7C71.5539 19.4467 72.0226 19.32 72.5292 19.32H80.5662C81.0856 19.32 81.5542 19.4467 81.9722 19.7C82.4029 19.9533 82.7449 20.2953 82.9982 20.726C83.2642 21.144 83.3972 21.6127 83.3972 22.132V33H80.4142V28.592H72.6622V33H69.7172ZM72.6622 25.628H80.4142V22.284H72.6622V25.628ZM85.6 33V19.32H96.449C96.9684 19.32 97.437 19.4467 97.855 19.7C98.2857 19.9533 98.6277 20.2953 98.881 20.726C99.147 21.144 99.28 21.6127 99.28 22.132V30.188C99.28 30.6947 99.147 31.1633 98.881 31.594C98.6277 32.0247 98.2857 32.3667 97.855 32.62C97.437 32.8733 96.9684 33 96.449 33H85.6ZM88.526 30.036H96.297V22.284H88.526V30.036ZM101.446 33V19.32H114.081V22.284H104.429V24.678H112.2V27.642H104.429V30.036H114.081V33H101.446Z" fill="white"/>
</g>
<defs>
<filter id="filter0_i_0_1" x="0.300003" y="0.660004" width="34.98" height="32.34" filterUnits="userSpaceOnUse" color-interpolation-filters="sRGB">
<feFlood flood-opacity="0" result="BackgroundImageFix"/>
<feBlend mode="normal" in="SourceGraphic" in2="BackgroundImageFix" result="shape"/>
<feColorMatrix in="SourceAlpha" type="matrix" values="0 0 0 0 0 0 0 0 0 0 0 0 0 0 0 0 0 0 127 0" result="hardAlpha"/>
<feOffset/>
<feGaussianBlur stdDeviation="2.5"/>
<feComposite in2="hardAlpha" operator="arithmetic" k2="-1" k3="1"/>
<feColorMatrix type="matrix" values="0 0 0 0 0 0 0 0 0 0.74902 0 0 0 0 1 0 0 0 1 0"/>
<feBlend mode="normal" in2="shape" result="effect1_innerShadow_0_1"/>
</filter>
<filter id="filter1_i_0_1" x="33.3" y="8.185" width="70.1242" height="10.815" filterUnits="userSpaceOnUse" color-interpolation-filters="sRGB">
<feFlood flood-opacity="0" result="BackgroundImageFix"/>
<feBlend mode="normal" in="SourceGraphic" in2="BackgroundImageFix" result="shape"/>
<feColorMatrix in="SourceAlpha" type="matrix" values="0 0 0 0 0 0 0 0 0 0 0 0 0 0 0 0 0 0 127 0" result="hardAlpha"/>
<feOffset/>
<feGaussianBlur stdDeviation="1.5"/>
<feComposite in2="hardAlpha" operator="arithmetic" k2="-1" k3="1"/>
<feColorMatrix type="matrix" values="0 0 0 0 0 0 0 0 0 0.74902 0 0 0 0 1 0 0 0 1 0"/>
<feBlend mode="normal" in2="shape" result="effect1_innerShadow_0_1"/>
</filter>
<filter id="filter2_i_0_1" x="39.121" y="19.301" width="74.9597" height="13.699" filterUnits="userSpaceOnUse" color-interpolation-filters="sRGB">
<feFlood flood-opacity="0" result="BackgroundImageFix"/>
<feBlend mode="normal" in="SourceGraphic" in2="BackgroundImageFix" result="shape"/>
<feColorMatrix in="SourceAlpha" type="matrix" values="0 0 0 0 0 0 0 0 0 0 0 0 0 0 0 0 0 0 127 0" result="hardAlpha"/>
<feOffset/>
<feGaussianBlur stdDeviation="1.5"/>
<feComposite in2="hardAlpha" operator="arithmetic" k2="-1" k3="1"/>
<feColorMatrix type="matrix" values="0 0 0 0 0 0 0 0 0 0.74902 0 0 0 0 1 0 0 0 1 0"/>
<feBlend mode="normal" in2="shape" result="effect1_innerShadow_0_1"/>
</filter>
</defs>
</svg>

