<svg width="245" height="76" viewBox="0 0 245 76" fill="none" xmlns="http://www.w3.org/2000/svg">
<g filter="url(#filter0_i_0_1)">
<path d="M17.576 76C11.7733 76 7.50667 75.744 4.776 75.232C2.04533 74.72 0.68 74.1227 0.68 73.44L5.8 62.304C7.76267 62.6453 12.6267 62.9867 20.392 63.328C28.2427 63.584 38.9947 63.712 52.648 63.712H55.08C58.7493 63.712 61.352 63.072 62.888 61.792C64.424 60.4267 65.192 58.1653 65.192 55.008V52.448C65.192 49.4613 64.552 47.328 63.272 46.048C62.0773 44.768 59.3467 44.128 55.08 44.128H25.384C16.7653 44.128 10.4933 42.5493 6.568 39.392C2.64267 36.1493 0.68 30.9013 0.68 23.648V21.6C0.68 17.8453 1.36267 14.3893 2.728 11.232C4.17867 8.07466 6.61067 5.55733 10.024 3.68C13.4373 1.71733 18.1307 0.736 24.104 0.736H58.92C64.7227 0.736 69.416 1.03467 73 1.632C76.584 2.22933 78.376 2.86933 78.376 3.55199L75.816 14.304C73.5973 14.048 68.5627 13.792 60.712 13.536C52.8613 13.1947 42.3227 13.024 29.096 13.024L27.688 12.896C23.7627 12.896 21.1173 13.7067 19.752 15.328C18.3867 16.864 17.6613 18.8267 17.576 21.216V23.392C17.576 26.208 18.344 28.3413 19.88 29.792C21.5013 31.1573 24.1467 31.84 27.816 31.84H56.232C61.6933 31.84 66.344 32.3947 70.184 33.504C74.024 34.6133 76.968 36.6613 79.016 39.648C81.064 42.5493 82.088 46.8587 82.088 52.576V54.624C82.088 61.024 80.424 66.1867 77.096 70.112C73.8533 74.0373 68.1787 76 60.072 76H17.576Z" fill="white"/>
</g>
<g filter="url(#filter1_i_0_1)">
<path d="M82.664 39V20.952H73.64V15.96H96.68V20.952H87.656V39H82.664ZM99.1373 39V15.96H120.417V20.952H104.161V24.984H117.249V29.976H104.161V34.008H120.417V39H99.1373ZM123.605 39V15.928H128.565V34.008H146.645V39H123.605ZM148.543 39V15.928H153.503V34.008H171.583V39H148.543ZM173.512 39V20.696C173.512 19.8213 173.726 19.032 174.152 18.328C174.579 17.6027 175.155 17.0267 175.88 16.6C176.606 16.1733 177.395 15.96 178.248 15.96H191.784C192.659 15.96 193.448 16.1733 194.152 16.6C194.878 17.0267 195.454 17.6027 195.88 18.328C196.328 19.032 196.552 19.8213 196.552 20.696V39H191.528V31.576H178.472V39H173.512ZM178.472 26.584H191.528V20.952H178.472V26.584ZM218.086 39L211.398 31.032H217.894L223.206 37.304V39H218.086ZM200.198 39V15.992H218.47C219.345 15.992 220.134 16.2053 220.838 16.632C221.564 17.0587 222.14 17.6347 222.566 18.36C223.014 19.0853 223.238 19.8747 223.238 20.728V26.68C223.238 27.5333 223.014 28.3227 222.566 29.048C222.14 29.7733 221.564 30.3493 220.838 30.776C220.134 31.2027 219.345 31.416 218.47 31.416L205.158 31.448V39H200.198ZM205.158 26.424H218.214V20.952H205.158V26.424Z" fill="white"/>
</g>
<g filter="url(#filter2_i_0_1)">
<path d="M86.36 71V42.2H108.12C109.187 42.2 110.16 42.4667 111.04 43C111.947 43.5333 112.667 44.2533 113.2 45.16C113.76 46.04 114.04 47.0267 114.04 48.12V53.52C114.04 53.8667 114.013 54.2 113.96 54.52C113.933 54.8133 113.867 55.0933 113.76 55.36C114.16 55.8667 114.493 56.4533 114.76 57.12C115.027 57.7867 115.16 58.4533 115.16 59.12V65.08C115.16 66.1467 114.88 67.1333 114.32 68.04C113.787 68.9467 113.067 69.6667 112.16 70.2C111.28 70.7333 110.293 71 109.2 71H86.36ZM92.56 64.76H108.88V59.48H92.56V64.76ZM92.56 53.24H107.76V48.44H92.56V53.24ZM119.561 71V42.16H125.761V64.76H148.361V71H119.561ZM150.773 71V48.12C150.773 47.0267 151.04 46.04 151.573 45.16C152.106 44.2533 152.826 43.5333 153.733 43C154.64 42.4667 155.626 42.2 156.693 42.2H173.613C174.706 42.2 175.693 42.4667 176.573 43C177.48 43.5333 178.2 44.2533 178.733 45.16C179.293 46.04 179.573 47.0267 179.573 48.12V71H173.293V61.72H156.973V71H150.773ZM156.973 55.48H173.293V48.44H156.973V55.48ZM184.211 71V42.2H207.051C208.144 42.2 209.131 42.4667 210.011 43C210.917 43.5333 211.637 44.2533 212.171 45.16C212.731 46.04 213.011 47.0267 213.011 48.12V65.08C213.011 66.1467 212.731 67.1333 212.171 68.04C211.637 68.9467 210.917 69.6667 210.011 70.2C209.131 70.7333 208.144 71 207.051 71H184.211ZM190.371 64.76H206.731V48.44H190.371V64.76ZM217.57 71V42.2H244.17V48.44H223.85V53.48H240.21V59.72H223.85V64.76H244.17V71H217.57Z" fill="white"/>
</g>
<defs>
<filter id="filter0_i_0_1" x="0.68" y="0.735992" width="81.408" height="75.264" filterUnits="userSpaceOnUse" color-interpolation-filters="sRGB">
<feFlood flood-opacity="0" result="BackgroundImageFix"/>
<feBlend mode="normal" in="SourceGraphic" in2="BackgroundImageFix" result="shape"/>
<feColorMatrix in="SourceAlpha" type="matrix" values="0 0 0 0 0 0 0 0 0 0 0 0 0 0 0 0 0 0 127 0" result="hardAlpha"/>
<feOffset/>
<feGaussianBlur stdDeviation="5"/>
<feComposite in2="hardAlpha" operator="arithmetic" k2="-1" k3="1"/>
<feColorMatrix type="matrix" values="0 0 0 0 0 0 0 0 0 0.74902 0 0 0 0 1 0 0 0 1 0"/>
<feBlend mode="normal" in2="shape" result="effect1_innerShadow_0_1"/>
</filter>
<filter id="filter1_i_0_1" x="73.64" y="15.928" width="149.598" height="23.072" filterUnits="userSpaceOnUse" color-interpolation-filters="sRGB">
<feFlood flood-opacity="0" result="BackgroundImageFix"/>
<feBlend mode="normal" in="SourceGraphic" in2="BackgroundImageFix" result="shape"/>
<feColorMatrix in="SourceAlpha" type="matrix" values="0 0 0 0 0 0 0 0 0 0 0 0 0 0 0 0 0 0 127 0" result="hardAlpha"/>
<feOffset/>
<feGaussianBlur stdDeviation="3.5"/>
<feComposite in2="hardAlpha" operator="arithmetic" k2="-1" k3="1"/>
<feColorMatrix type="matrix" values="0 0 0 0 0 0 0 0 0 0.74902 0 0 0 0 1 0 0 0 1 0"/>
<feBlend mode="normal" in2="shape" result="effect1_innerShadow_0_1"/>
</filter>
<filter id="filter2_i_0_1" x="86.36" y="42.16" width="157.81" height="28.84" filterUnits="userSpaceOnUse" color-interpolation-filters="sRGB">
<feFlood flood-opacity="0" result="BackgroundImageFix"/>
<feBlend mode="normal" in="SourceGraphic" in2="BackgroundImageFix" result="shape"/>
<feColorMatrix in="SourceAlpha" type="matrix" values="0 0 0 0 0 0 0 0 0 0 0 0 0 0 0 0 0 0 127 0" result="hardAlpha"/>
<feOffset/>
<feGaussianBlur stdDeviation="3.5"/>
<feComposite in2="hardAlpha" operator="arithmetic" k2="-1" k3="1"/>
<feColorMatrix type="matrix" values="0 0 0 0 0 0 0 0 0 0.74902 0 0 0 0 1 0 0 0 1 0"/>
<feBlend mode="normal" in2="shape" result="effect1_innerShadow_0_1"/>
</filter>
</defs>
</svg>



